<?xml version="1.0" standalone="no"?>
<!DOCTYPE svg PUBLIC "-//W3C//DTD SVG 20010904//EN"
 "http://www.w3.org/TR/2001/REC-SVG-20010904/DTD/svg10.dtd">
<svg version="1.0" xmlns="http://www.w3.org/2000/svg"
 width="512.000000pt" height="512.000000pt" viewBox="0 0 512.000000 512.000000"
 preserveAspectRatio="xMidYMid meet">

<g transform="translate(0.000000,512.000000) scale(0.100000,-0.100000)"
fill="#ffffff" stroke="none">
<path d="M2579 4905 c-4 -5 -10 -70 -14 -142 -7 -127 -8 -133 -29 -133 -50 -1
-53 -7 -62 -163 -5 -77 -3 -90 12 -101 20 -15 19 -48 -21 -526 -69 -820 -138
-1330 -181 -1330 -23 0 -63 -22 -69 -39 -3 -8 1 -54 11 -101 l16 -85 -71 -207
c-40 -114 -93 -261 -119 -325 l-47 -118 -67 -3 c-61 -3 -68 -5 -72 -25 -13
-61 -15 -128 -6 -179 l9 -58 -385 -554 c-211 -305 -384 -557 -384 -560 0 -4
132 -5 293 -4 l292 3 6 90 c3 50 14 119 23 155 25 97 107 256 171 332 65 78
198 182 300 233 157 80 428 103 598 51 113 -34 197 -72 288 -131 212 -137 375
-421 396 -691 l6 -84 273 0 c151 0 274 4 274 9 0 5 -167 262 -370 572 l-370
564 7 45 c8 49 7 173 -3 202 -4 15 -16 18 -69 18 l-63 0 -80 202 c-44 112 -96
254 -116 316 l-36 113 13 107 c8 59 12 112 10 119 -3 7 -23 18 -46 26 l-41 13
-18 85 c-42 204 -96 603 -114 844 -4 55 -10 92 -12 83 -5 -23 -15 -23 -37 2
-18 20 -18 21 1 34 14 11 21 11 27 3 5 -7 6 22 3 63 -2 41 -12 220 -22 397
-16 301 -16 324 -1 341 23 25 24 164 2 182 -9 7 -14 24 -13 39 3 22 -2 28 -29
36 -33 9 -33 10 -33 72 0 35 -4 63 -10 63 -5 0 -10 35 -12 78 -2 42 -6 73 -9
67z m15 -560 c26 -14 27 -14 15 1 -11 14 -10 15 11 12 22 -3 25 -8 26 -44 0
-22 4 -46 8 -52 4 -7 3 -12 -3 -12 -5 0 -15 8 -21 18 -10 16 -10 16 -20 0 -13
-22 -48 -24 -56 -4 -8 22 -30 26 -30 6 0 -10 5 -16 12 -13 6 2 16 -2 23 -10 9
-11 8 -17 -4 -27 -24 -20 -37 1 -41 67 -4 75 17 90 80 58z m45 -99 c9 -10 8
-16 -4 -26 -21 -17 -51 6 -34 26 6 8 15 14 19 14 4 0 13 -6 19 -14z m-115 -49
c-1 -9 4 -13 11 -11 7 3 16 0 20 -6 5 -8 -2 -10 -21 -8 -22 2 -30 9 -32 27 -3
16 0 22 10 19 7 -3 12 -12 12 -21z m81 3 c0 -18 -33 -26 -47 -12 -6 6 -7 15
-3 22 10 16 50 8 50 -10z m53 -2 c-2 -14 -13 -25 -28 -29 -24 -7 -24 -7 -2 -8
34 -2 50 -43 28 -76 -18 -27 -24 -29 -46 -15 -12 7 -13 13 -3 27 6 10 17 17
25 15 7 -2 10 0 6 4 -4 4 -2 14 4 23 10 13 10 14 -2 4 -10 -9 -17 -10 -27 -2
-18 16 -16 28 10 55 28 30 39 30 35 2z m-50 -60 c11 -9 10 -14 -3 -27 -19 -19
-51 -3 -49 23 1 12 -2 14 -10 7 -9 -7 -17 -7 -26 2 -12 10 -12 9 -2 -4 10 -13
9 -19 -3 -29 -13 -11 -15 -9 -15 12 0 14 3 28 8 32 9 10 82 -2 100 -16z m-52
-35 c22 -31 -17 -58 -44 -31 -9 9 -8 16 5 30 20 22 23 22 39 1z m64 -53 c0
-12 -24 -30 -40 -30 -29 0 -42 22 -24 41 13 14 20 16 40 7 13 -6 24 -14 24
-18z m-88 -7 c32 -30 35 -45 13 -63 -12 -10 -18 -10 -32 1 -15 11 -16 11 -6
-1 10 -11 9 -18 -5 -33 -16 -19 -16 -20 6 -8 18 10 27 10 38 0 21 -18 17 -29
-23 -66 -25 -22 -30 -30 -15 -23 17 9 27 8 38 -1 19 -16 18 -33 -6 -54 -19
-17 -22 -18 -37 -2 -9 9 -18 38 -21 64 -3 39 -1 46 9 36 18 -18 34 -16 20 1
-7 8 -8 16 -4 18 4 3 3 3 -4 2 -17 -4 -25 29 -14 59 6 14 7 42 4 61 -7 43 2
45 39 9z m136 -15 c-1 -24 2 -55 6 -70 7 -24 5 -29 -15 -37 -13 -5 -17 -10 -9
-10 12 -1 11 -4 -2 -18 -14 -13 -20 -14 -32 -3 -35 28 -4 70 36 49 22 -12 22
-11 6 8 -14 15 -15 22 -5 33 10 12 9 12 -5 1 -15 -11 -21 -11 -33 -1 -8 7 -15
18 -15 25 0 7 7 18 15 25 12 10 18 10 33 -1 15 -13 16 -12 4 3 -14 17 -9 38 9
38 5 0 8 -19 7 -42z m-58 -53 c11 -13 10 -18 -6 -30 -10 -8 -21 -14 -24 -14
-3 0 -14 6 -24 14 -16 12 -17 17 -6 30 7 8 20 15 30 15 10 0 23 -7 30 -15z m0
-90 c15 -18 -2 -45 -30 -45 -10 0 -23 7 -30 15 -15 18 2 45 30 45 10 0 23 -7
30 -15z m68 -30 c-3 -25 -12 -53 -21 -62 -15 -16 -18 -15 -37 2 -24 22 -25 38
-5 55 12 10 19 10 27 2 7 -7 17 -12 23 -12 5 0 1 7 -9 15 -16 12 -17 17 -6 30
22 26 31 16 28 -30z m-99 -82 c1 43 4 44 33 17 21 -19 21 -20 3 -40 -23 -25
-47 -25 -70 0 -17 19 -17 21 1 41 l19 21 6 -38 6 -39 2 38z m-79 12 c10 -13 9
-19 -6 -38 l-19 -22 23 19 c22 20 23 20 43 -1 11 -11 24 -42 28 -69 8 -47 9
-47 10 -11 1 42 10 46 36 17 17 -19 17 -21 0 -40 -10 -11 -26 -20 -35 -20 -9
0 -25 9 -35 20 -17 19 -17 21 1 43 l19 22 -23 -19 c-23 -20 -23 -20 -45 2
l-21 22 39 1 40 2 -40 6 c-38 6 -40 8 -43 44 -3 39 7 47 28 22z m188 -22 c-3
-36 -5 -38 -43 -44 l-40 -6 40 -2 39 -1 -21 -22 c-22 -21 -23 -21 -43 -3 -25
23 -25 37 0 60 19 17 21 17 43 -1 l22 -19 -19 22 c-15 19 -16 25 -6 38 21 25
31 17 28 -22z m-164 -123 c39 -42 46 -55 46 -90 l0 -40 -25 16 -26 17 23 26
c19 21 19 23 2 8 -26 -22 -37 -22 -59 3 -18 20 -17 20 11 21 25 2 26 2 6 6
-23 5 -23 5 -5 26 l18 21 -27 -17 -28 -17 0 35 c0 19 4 35 9 35 4 0 29 -22 55
-50z m176 3 c0 -27 -7 -29 -32 -6 -17 15 -17 17 -1 35 19 21 33 9 33 -29z
m-36 -12 c17 -19 17 -20 -6 -24 -20 -4 -19 -4 6 -6 28 -1 29 -1 11 -21 -22
-25 -33 -25 -59 -3 -17 15 -17 13 2 -8 l23 -26 -25 -17 c-14 -9 -27 -16 -29
-16 -11 0 14 101 29 119 23 26 26 26 48 2z m-165 -78 c6 -4 -31 -43 -41 -43
-9 0 -11 31 -2 54 5 14 9 14 23 4 9 -7 18 -14 20 -15z m41 -38 l23 -25 -54 0
-54 1 28 24 c15 14 29 25 31 25 1 0 13 -11 26 -25z m150 -9 c11 -14 6 -16 -41
-16 l-52 0 23 25 c24 25 43 23 70 -9z m-153 -53 l-27 -28 -27 28 -28 27 55 0
55 0 -28 -27z m140 0 l-27 -28 -27 28 -28 27 55 0 55 0 -28 -27z m-205 -55
c-14 -15 -27 -26 -30 -24 -2 3 -1 23 3 45 7 41 7 41 30 23 l23 -17 -26 -27z
m96 1 l-3 -21 -25 21 -25 21 25 21 25 21 3 -21 c2 -11 2 -31 0 -42z m67 21 c0
-7 -10 -19 -22 -27 -23 -15 -23 -15 -23 27 0 42 0 42 23 28 12 -9 22 -21 22
-28z m79 -10 l7 -45 -30 29 -30 29 22 17 c12 10 22 18 23 17 1 -1 4 -22 8 -47z
m-174 -25 l23 -25 -51 0 c-29 0 -52 3 -52 6 0 7 42 43 51 44 3 0 16 -11 29
-25z m138 6 c12 -11 22 -22 22 -25 0 -3 -21 -7 -47 -8 l-48 -1 47 -6 46 -6
-19 -24 -20 -24 -22 22 c-13 11 -27 21 -33 21 -5 0 5 -11 21 -24 l30 -24 -22
-24 c-13 -13 -23 -28 -23 -34 0 -5 11 5 24 21 l25 30 33 -32 33 -33 -58 0
c-66 0 -71 5 -72 87 0 41 5 57 24 77 29 31 30 31 59 7z m-122 -49 c11 -7 34
-74 34 -99 0 -7 -4 -13 -10 -13 -5 0 -11 19 -12 43 l-1 42 -4 -41 c-3 -30 -14
-53 -38 -80 l-34 -39 -28 28 -28 27 50 2 50 1 -55 6 c-60 7 -59 4 -44 90 l5
34 26 -25 26 -26 -34 -32 c-36 -33 -20 -31 18 3 l22 19 26 -28 c27 -30 24 -13
-3 19 -14 16 -13 20 9 45 l24 27 -26 -22 c-32 -29 -33 -29 -53 2 l-16 25 42 0
c24 0 48 -4 54 -8z m172 -83 c-3 -18 -5 -17 -33 5 l-30 24 25 27 25 26 8 -31
c4 -18 7 -41 5 -51z m-28 -68 c-17 -32 -30 -34 -58 -10 l-27 24 24 -27 23 -27
-23 -33 -22 -33 29 28 30 27 24 -25 c13 -14 28 -25 34 -25 6 0 -4 14 -23 31
l-33 31 23 24 c28 30 36 22 41 -41 l3 -50 -65 0 -65 0 -9 53 c-11 63 -4 72 62
72 39 0 42 -2 32 -19z m-244 -16 c16 -25 16 -27 -12 -57 l-29 -32 36 26 36 27
22 -23 c11 -12 21 -25 21 -29 0 -11 -108 -8 -115 3 -8 13 6 110 16 110 5 0 16
-11 25 -25z m108 9 c9 -24 6 -42 -4 -19 -6 15 -9 7 -9 -29 l-1 -49 -25 23
c-31 29 -31 37 -3 67 25 27 34 29 42 7z m31 -81 c5 -19 2 -23 -14 -23 -23 0
-24 3 -15 38 7 26 18 20 29 -15z m-58 -49 c3 -8 2 -39 -3 -67 l-9 -52 -65 -3
-65 -3 29 30 c36 38 51 39 72 6 9 -14 19 -23 22 -20 3 3 -5 16 -18 30 l-24 25
30 32 29 31 -32 -23 c-32 -23 -33 -23 -53 -5 -31 28 -25 35 30 35 37 0 52 -4
57 -16z m52 -5 c-9 -18 -13 -19 -21 -8 -6 10 -7 6 -3 -11 4 -14 12 -29 17 -35
6 -6 7 -4 3 7 -5 11 2 26 19 43 20 20 35 25 76 25 l51 0 -22 -31 -21 -30 -32
28 -31 28 27 -29 27 -29 -20 -29 c-27 -37 -39 -28 -41 30 -1 45 -2 45 -7 -13
-6 -56 -8 -60 -33 -63 -30 -4 -33 3 -29 63 3 57 11 75 32 75 17 0 18 -3 8 -21z
m-160 -71 c-18 -15 -34 -26 -36 -24 -2 2 2 27 8 57 l12 53 25 -29 25 -29 -34
-28z m329 25 c5 -29 6 -53 3 -53 -4 0 -20 13 -36 30 l-29 30 24 25 c13 14 24
24 26 22 1 -1 7 -26 12 -54z m-28 -43 l35 -29 -62 -1 c-35 0 -63 3 -63 7 0 9
41 53 50 53 3 0 21 -13 40 -30z m-212 -87 c2 -23 -2 -52 -8 -63 -10 -18 -19
-21 -73 -18 l-62 3 3 55 c2 30 5 57 8 59 2 3 17 -7 32 -22 l26 -27 -34 -30
c-19 -17 -26 -27 -14 -21 11 5 27 17 34 26 12 14 16 13 43 -12 l30 -28 -22 32
-22 33 28 26 28 26 -32 -22 c-35 -23 -47 -21 -64 11 -10 19 -8 20 43 17 l53
-3 3 -42z m82 38 c0 -5 -6 -14 -14 -20 -11 -9 -15 -8 -20 5 -4 9 -9 14 -13 11
-3 -4 0 -13 7 -22 10 -12 8 -21 -9 -47 l-21 -33 0 38 c0 51 15 77 45 77 14 0
25 -4 25 -9z m127 -18 l-27 -28 -27 28 -28 27 55 0 55 0 -28 -27z m-100 -77
c-2 -5 -11 4 -21 19 -15 23 -16 31 -5 54 12 26 12 26 21 -19 4 -25 7 -49 5
-54z m56 57 c16 -19 16 -21 -3 -38 -11 -10 -20 -23 -20 -29 1 -6 11 2 24 17
l23 28 30 -25 c17 -14 35 -26 39 -26 5 0 -7 13 -26 29 l-35 30 27 27 27 27 5
-34 c16 -87 17 -84 -49 -87 -33 -1 -65 1 -71 5 -6 5 -14 32 -18 61 -6 49 -5
52 11 44 10 -6 26 -19 36 -29z m-63 -75 c0 -5 -20 -8 -45 -8 l-45 0 22 35 23
34 22 -27 c12 -15 22 -30 23 -34z m-120 -22 c0 -3 -16 -17 -35 -32 -34 -26
-36 -26 -55 -9 -35 32 -25 45 35 45 30 0 55 -2 55 -4z m128 -21 c14 -30 16
-94 3 -113 -5 -9 -25 -12 -59 -10 l-51 3 28 34 29 35 27 -30 c27 -29 25 -14
-3 18 -13 16 -13 21 3 45 l17 28 -22 -22 -23 -22 -19 24 c-10 13 -18 25 -18
27 0 1 17 4 38 6 33 2 40 -2 50 -23z m142 18 c-1 -11 -37 -53 -46 -53 -4 0
-18 10 -31 22 -13 12 -25 19 -27 17 -3 -2 28 -31 67 -64 l71 -60 -64 -3 c-76
-4 -90 8 -90 74 0 68 5 74 66 74 30 0 54 -3 54 -7z m-383 -95 c-37 -32 -50
-35 -43 -10 2 9 8 37 12 62 l7 45 28 -35 29 -34 -33 -28z m119 45 c-3 -21 -6
-49 -6 -63 -1 -25 -1 -25 -31 9 l-31 33 28 29 c37 39 48 37 40 -8z m35 -46
l-33 -32 6 40 c3 22 6 49 6 60 0 18 3 17 27 -8 l28 -27 -34 -33z m263 32 c4
-28 5 -53 3 -55 -2 -2 -19 9 -38 25 l-34 29 24 26 c14 14 28 26 31 26 4 0 10
-23 14 -51z m-333 -61 c9 -16 4 -18 -57 -18 l-67 0 39 34 c37 32 40 33 57 18
11 -9 23 -25 28 -34z m19 -31 c0 -2 -19 -19 -42 -37 l-41 -33 -24 29 c-12 16
-23 32 -23 37 0 4 29 7 65 7 36 0 65 -1 65 -3z m119 -24 c-13 -16 -25 -30 -27
-32 -3 -6 -52 41 -52 51 0 4 23 8 52 8 l51 0 -24 -27z m191 19 c0 -5 -13 -21
-29 -36 l-29 -28 -39 36 -38 35 68 1 c37 0 67 -4 67 -8z m-418 -55 c12 -24 -6
-47 -38 -47 -26 0 -29 12 -18 69 6 31 7 31 26 14 11 -10 24 -26 30 -36z m118
21 c0 -46 -12 -68 -35 -68 -12 0 -28 7 -35 14 -9 12 -5 21 22 45 40 37 48 38
48 9z m48 -7 c21 -28 21 -29 2 -46 -30 -27 -46 -14 -42 34 2 22 7 41 11 41 4
0 17 -13 29 -29z m101 -39 c1 -18 -4 -23 -20 -20 -12 2 -27 11 -33 20 -8 13
-5 23 14 43 l25 27 6 -24 c4 -13 7 -33 8 -46z m68 23 c26 -24 42 -44 36 -45
-7 0 -13 5 -13 11 0 8 -4 8 -14 -1 -8 -6 -25 -10 -38 -8 -19 2 -24 11 -29 46
-3 23 -2 42 2 42 4 0 29 -20 56 -45z m113 31 c0 -7 3 -28 6 -45 6 -28 4 -31
-18 -31 -13 0 -33 6 -44 14 -18 14 -18 15 10 45 32 34 46 39 46 17z m-240 -66
c0 -5 -4 -10 -10 -10 -5 0 -10 5 -10 10 0 6 5 10 10 10 6 0 10 -4 10 -10z
m-252 -156 c-9 -9 -21 -13 -27 -10 -20 13 -11 26 16 26 25 0 26 -1 11 -16z
m90 0 c-9 -9 -21 -13 -27 -10 -20 13 -11 26 16 26 25 0 26 -1 11 -16z m140
-29 c3 -39 3 -39 -17 -21 -20 18 -20 20 -4 39 17 19 17 20 -4 8 -23 -11 -53
-6 -53 11 0 5 17 8 38 6 35 -3 37 -5 40 -43z m92 36 c0 -16 -19 -23 -40 -16
-30 10 -24 25 10 25 17 0 30 -4 30 -9z m100 0 c0 -19 -22 -23 -38 -7 -15 15
-14 16 11 16 15 0 27 -4 27 -9z m94 -6 c-8 -19 -15 -19 -40 0 -18 14 -17 14
13 15 25 0 31 -4 27 -15z m-567 -44 c-10 -11 -8 -13 9 -7 15 4 24 2 28 -9 4
-11 -2 -15 -23 -15 -24 0 -28 4 -26 28 3 44 5 48 15 32 6 -9 5 -19 -3 -29z
m67 17 c-9 -31 -14 -35 -24 -18 -6 9 -3 18 8 27 23 17 24 16 16 -9z m90 -13
c-6 -23 -8 -25 -16 -11 -6 11 -6 22 3 32 16 20 21 12 13 -21z m42 -4 c-19 -19
-27 -12 -19 17 4 18 8 20 20 11 12 -11 12 -14 -1 -28z m123 26 c8 -10 7 -17
-1 -25 -19 -19 -28 -14 -28 13 0 27 12 32 29 12z m78 -34 c-4 -3 -13 0 -22 7
-12 10 -13 16 -3 27 11 13 14 12 22 -6 5 -12 6 -24 3 -28z m39 1 c-8 -21 -11
-17 -20 21 -7 28 -6 29 10 13 10 -10 14 -23 10 -34z m63 1 c1 -5 -6 -2 -15 7
-10 9 -13 21 -8 29 5 9 9 8 15 -7 4 -10 8 -23 8 -29z m31 30 c6 -8 9 -19 5
-25 -11 -17 -22 -11 -27 15 -6 28 3 32 22 10z m-430 -4 c0 -5 -7 -14 -15 -21
-16 -14 -18 -10 -9 14 6 17 24 22 24 7z m488 -21 c-2 -26 -6 -30 -31 -30 -25
0 -27 2 -17 14 6 8 19 12 28 9 14 -6 15 -4 5 9 -13 14 -8 28 9 28 4 0 7 -13 6
-30z m-460 -18 c2 -7 -7 -12 -23 -12 -24 0 -26 2 -15 15 14 17 31 16 38 -3z
m122 3 c11 -13 6 -15 -31 -15 -41 1 -43 2 -25 15 25 19 40 19 56 0z m126 0
c18 -13 16 -14 -26 -14 -42 0 -44 1 -26 14 11 8 23 15 26 15 3 0 15 -7 26 -15z
m108 0 c19 -14 18 -15 -12 -15 -24 0 -30 4 -26 15 7 18 14 18 38 0z m-454 -97
c-1 -33 -16 -38 -40 -13 l-23 25 31 0 c19 0 32 -5 32 -12z m65 -4 c-42 -32
-55 -36 -55 -16 0 26 9 32 44 32 30 -1 30 -1 11 -16z m429 0 c15 -38 1 -38
-49 0 -19 15 -19 15 11 16 20 0 34 -6 38 -16z m56 -9 c-25 -27 -40 -25 -40 6
0 15 7 19 32 19 l31 0 -23 -25z m-581 -48 c-20 -17 -84 -56 -87 -53 -2 3 4 30
14 60 l18 57 30 -30 c16 -17 28 -32 25 -34z m120 -1 c-7 -31 -15 -56 -19 -56
-3 0 -19 14 -36 31 -24 25 -27 32 -14 39 8 5 29 18 45 28 17 11 32 18 33 16 2
-1 -2 -28 -9 -58z m351 -203 c29 -148 55 -278 58 -290 l4 -23 -257 0 -257 0 6
23 c23 83 70 274 96 392 17 77 32 146 35 153 3 9 39 12 133 12 l128 0 54 -267z
m60 210 c3 -3 -11 -18 -30 -34 -39 -33 -41 -31 -55 49 l-7 44 43 -28 c24 -14
46 -29 49 -31z m114 -5 c8 -29 14 -53 13 -55 -2 -1 -24 12 -50 29 l-48 31 28
23 c15 13 31 23 35 24 3 0 13 -23 22 -52z m-639 -40 c-11 -34 -19 -40 -56 -36
l-33 3 40 27 c48 33 57 34 49 6z m52 0 c31 -29 29 -38 -7 -38 -27 0 -30 3 -30
30 0 36 6 37 37 8z m493 -14 c0 -20 -5 -24 -30 -24 -36 0 -37 6 -9 37 25 26
39 22 39 -13z m95 -16 c5 -4 -7 -8 -28 -8 -31 0 -39 4 -47 26 -6 14 -10 28
-10 30 0 6 68 -33 85 -48z m-665 -47 c0 -32 -20 -35 -48 -7 l-27 26 38 0 c30
0 37 -4 37 -19z m90 15 c0 -6 -72 -47 -76 -43 -2 1 -1 13 3 25 4 17 13 22 39
22 19 0 34 -2 34 -4z m503 -18 c4 -12 4 -24 2 -26 -4 -5 -75 37 -75 44 0 2 15
4 34 4 26 0 35 -5 39 -22z m63 -3 c-33 -26 -41 -25 -49 5 -5 18 0 20 36 20
l42 -1 -29 -24z m-686 -47 c0 -9 -91 -70 -97 -65 -3 4 26 107 34 120 6 9 63
-41 63 -55z m130 -8 c-7 -33 -16 -60 -19 -60 -4 0 -22 15 -39 33 l-33 34 48
30 c26 16 50 28 52 27 2 -2 -2 -31 -9 -64z m467 -27 c-17 -18 -34 -33 -38 -33
-7 0 -29 87 -29 116 0 10 14 5 49 -18 l50 -33 -32 -32z m152 35 c11 -34 19
-63 17 -66 -2 -2 -27 12 -55 30 l-50 34 32 32 c17 18 32 32 33 32 1 0 12 -28
23 -62z m-748 -55 c-6 -24 -13 -29 -47 -31 -42 -4 -42 -1 8 34 43 30 48 30 39
-3z m64 -3 l29 -30 -37 0 c-32 0 -37 3 -37 23 0 19 7 37 15 37 1 0 14 -13 30
-30z m585 -12 c0 -14 -8 -18 -37 -18 l-37 0 29 30 c30 31 45 27 45 -12z m62
15 l42 -28 -33 -3 c-37 -4 -45 2 -56 36 -8 28 -3 28 47 -5z m-742 -60 c0 -10
-5 -25 -10 -33 -7 -12 -13 -11 -34 10 -35 32 -33 40 9 40 27 0 35 -4 35 -17z
m100 7 c-1 -9 -90 -59 -90 -50 0 5 4 20 10 34 8 22 15 26 45 24 19 -2 35 -5
35 -8z m610 -16 c17 -42 12 -45 -35 -16 -25 15 -45 29 -45 32 0 3 16 6 35 8
30 2 37 -2 45 -24z m68 -4 c-27 -37 -36 -37 -48 -4 -14 35 -15 34 30 34 l41 0
-23 -30z m-835 -25 l28 -34 -53 -30 c-29 -17 -54 -27 -56 -22 -4 12 38 121 46
120 4 0 20 -16 35 -34z m161 -39 c-9 -36 -20 -66 -23 -66 -4 0 -23 16 -42 36
-28 29 -31 37 -19 44 61 37 95 56 98 55 2 -2 -5 -32 -14 -69z m616 3 c0 -3
-18 -20 -40 -37 l-39 -32 -10 38 c-6 21 -14 53 -17 70 l-7 33 56 -33 c31 -18
57 -36 57 -39z m129 10 c13 -33 21 -63 18 -65 -6 -6 -107 55 -107 64 0 8 52
62 61 62 3 0 16 -27 28 -61z m-888 -72 c-9 -23 -16 -27 -51 -27 -22 0 -40 2
-40 5 0 10 95 64 98 56 1 -4 -2 -20 -7 -34z m64 -25 c-21 -2 -38 -2 -40 0 -1
2 0 18 2 36 l5 34 35 -34 34 -33 -36 -3z m715 49 c0 -11 3 -26 6 -35 5 -13 -2
-16 -36 -16 l-42 0 29 34 c32 40 43 44 43 17z m66 -8 c24 -16 44 -32 44 -36 0
-5 -17 -7 -37 -5 -31 3 -39 8 -50 36 -7 17 -10 32 -7 32 4 0 26 -12 50 -27z
m-867 -83 c-6 -16 -14 -30 -18 -30 -4 0 -20 14 -36 30 l-29 30 47 0 46 0 -10
-30z m116 22 c-24 -21 -105 -62 -105 -53 0 5 4 21 10 35 8 23 15 26 57 26 26
0 43 -4 38 -8z m716 -24 c4 -17 3 -28 -3 -28 -11 0 -98 50 -98 56 0 3 21 4 47
2 41 -3 47 -6 54 -30z m74 2 c-34 -35 -46 -34 -56 3 -7 26 -6 27 39 27 l46 0
-29 -30z m-983 -7 c26 -23 22 -33 -12 -33 -22 0 -30 5 -30 18 0 34 15 40 42
15z m204 -18 c-5 -15 -56 -22 -56 -7 0 11 55 39 58 30 2 -5 1 -15 -2 -23z
m627 16 c34 -18 35 -33 1 -29 -17 2 -30 11 -35 26 -5 13 -6 22 -1 20 4 -2 19
-10 35 -17z m211 3 c11 -28 7 -34 -24 -34 -34 0 -37 6 -13 32 20 22 29 23 37
2z m-1166 -91 c-3 -43 -5 -48 -28 -48 -23 0 -25 5 -28 48 -3 47 -3 47 28 47
31 0 31 0 28 -47z m482 -2 l0 -46 -217 2 c-120 0 -226 2 -235 2 -14 1 -18 10
-18 45 l0 44 235 0 235 0 0 -47z m70 5 c0 -39 -3 -44 -25 -48 -32 -7 -35 -3
-35 49 0 41 1 43 30 43 29 0 30 -2 30 -44z m68 -3 c-3 -43 -5 -48 -28 -48 -23
0 -25 5 -28 48 -3 47 -3 47 28 47 31 0 31 0 28 -47z m482 -2 l0 -46 -217 2
c-120 0 -226 2 -235 2 -14 1 -18 10 -18 45 l0 44 235 0 235 0 0 -47z m68 2
c-3 -43 -5 -48 -28 -48 -23 0 -25 5 -28 48 -3 47 -3 47 28 47 31 0 31 0 28
-47z m70 0 c-3 -43 -5 -48 -28 -48 -23 0 -25 5 -28 48 -3 47 -3 47 28 47 31 0
31 0 28 -47z m72 4 c0 -52 -3 -56 -35 -49 -22 4 -25 9 -25 48 0 42 1 44 30 44
29 0 30 -2 30 -43z m-1384 -246 c-20 -22 -20 -37 0 -45 25 -9 1 -31 -36 -34
-36 -3 -36 -4 5 59 17 26 34 45 38 42 5 -3 1 -13 -7 -22z m54 8 c0 -18 -2 -19
-15 -9 -15 12 -12 30 6 30 5 0 9 -10 9 -21z m33 14 c4 -3 2 -12 -4 -19 -8 -9
-5 -11 9 -7 25 6 37 -13 21 -33 -12 -14 -15 -14 -31 6 -26 32 -21 80 5 53z
m47 -14 c0 -18 -2 -19 -15 -9 -15 12 -12 30 6 30 5 0 9 -10 9 -21z m33 14 c4
-3 3 -11 -2 -17 -6 -7 -1 -11 15 -12 19 -2 22 1 14 10 -10 13 -4 26 12 26 15
0 8 -37 -10 -60 l-19 -23 -16 24 c-25 35 -20 78 6 52z m69 -25 c-9 -9 -12 -7
-12 12 0 19 3 21 12 12 9 -9 9 -15 0 -24z m84 21 c3 -6 0 -15 -7 -20 -10 -7
-7 -8 10 -7 28 3 40 -19 15 -29 -19 -7 -44 20 -44 49 0 20 15 24 26 7z m44
-10 c0 -18 -2 -19 -15 -9 -15 12 -12 30 6 30 5 0 9 -10 9 -21z m36 10 c3 -6 0
-15 -7 -20 -10 -7 -7 -8 10 -7 28 3 40 -19 15 -29 -19 -7 -44 20 -44 49 0 20
15 24 26 7z m44 -10 c0 -18 -2 -19 -15 -9 -15 12 -12 30 6 30 5 0 9 -10 9 -21z
m37 4 c2 -6 -3 -13 -12 -16 -10 -5 -15 0 -15 14 0 21 21 22 27 2z m43 -1 c0
-29 -25 -56 -45 -49 -14 6 -15 10 -5 23 7 8 19 13 25 10 8 -3 11 2 8 15 -3 10
0 19 6 19 6 0 11 -8 11 -18z m36 7 c3 -6 2 -15 -4 -21 -6 -6 -11 -2 -15 11 -5
22 7 29 19 10z m44 -7 c0 -29 -23 -54 -43 -46 -14 5 -15 9 -6 21 7 7 18 12 26
9 8 -3 11 -1 8 4 -6 10 1 30 11 30 2 0 4 -8 4 -18z m32 -14 c-9 -9 -12 -7 -12
12 0 19 3 21 12 12 9 -9 9 -15 0 -24z m48 10 c0 -16 -3 -19 -11 -11 -6 6 -8
16 -5 22 11 17 16 13 16 -11z m32 -10 c-9 -9 -12 -7 -12 12 0 19 3 21 12 12 9
-9 9 -15 0 -24z m48 10 c0 -16 -3 -19 -11 -11 -6 6 -8 16 -5 22 11 17 16 13
16 -11z m32 -10 c-9 -9 -12 -7 -12 12 0 19 3 21 12 12 9 -9 9 -15 0 -24z m48
10 c0 -16 -3 -19 -11 -11 -6 6 -8 16 -5 22 11 17 16 13 16 -11z m32 -10 c-9
-9 -12 -7 -12 12 0 19 3 21 12 12 9 -9 9 -15 0 -24z m48 10 c0 -16 -3 -19 -11
-11 -6 6 -8 16 -5 22 11 17 16 13 16 -11z m32 -10 c-9 -9 -12 -7 -12 12 0 19
3 21 12 12 9 -9 9 -15 0 -24z m48 10 c0 -16 -3 -19 -11 -11 -6 6 -8 16 -5 22
11 17 16 13 16 -11z m36 -4 c-3 -8 0 -11 8 -8 7 3 18 -2 25 -9 9 -12 8 -16 -6
-21 -11 -5 -22 -1 -30 10 -16 22 -17 58 -2 49 6 -4 8 -13 5 -21z m50 6 c0 -21
-11 -26 -21 -10 -7 11 2 30 13 30 4 0 8 -9 8 -20z m74 6 c0 -40 -23 -59 -34
-30 -4 11 -2 15 8 11 10 -4 12 0 9 14 -3 10 0 19 6 19 6 0 11 -6 11 -14z m33
7 c4 -3 2 -12 -4 -19 -8 -9 -5 -11 9 -7 25 6 37 -13 21 -33 -12 -14 -15 -14
-31 6 -26 32 -21 80 5 53z m47 -14 c0 -18 -2 -19 -15 -9 -15 12 -12 30 6 30 5
0 9 -10 9 -21z m33 14 c4 -3 3 -11 -2 -17 -6 -7 -1 -11 15 -12 19 -2 22 1 14
10 -10 13 -4 26 12 26 15 0 8 -37 -10 -60 l-19 -23 -16 24 c-25 35 -20 78 6
52z m73 -19 c-3 -8 0 -11 8 -8 7 3 18 -2 25 -9 9 -12 8 -16 -6 -21 -11 -5 -22
-1 -30 10 -16 22 -17 58 -2 49 6 -4 8 -13 5 -21z m73 -31 c29 -46 28 -62 -4
-49 -9 3 -15 18 -15 36 0 18 -6 33 -15 36 -16 7 -21 24 -6 24 5 0 23 -21 40
-47z m-1381 9 c5 -17 -27 -27 -41 -13 -9 9 -8 14 3 21 18 11 32 8 38 -8z m216
3 c-4 -8 -13 -15 -21 -15 -13 0 -13 3 -3 15 7 8 16 15 21 15 5 0 6 -7 3 -15z
m415 1 c9 -10 8 -15 -4 -20 -8 -3 -22 -3 -30 0 -12 5 -13 10 -4 20 6 8 15 14
19 14 4 0 13 -6 19 -14z m80 0 c9 -10 8 -15 -4 -20 -8 -3 -22 -3 -30 0 -12 5
-13 10 -4 20 6 8 15 14 19 14 4 0 13 -6 19 -14z m80 0 c9 -10 8 -15 -4 -20 -8
-3 -22 -3 -30 0 -12 5 -13 10 -4 20 6 8 15 14 19 14 4 0 13 -6 19 -14z m80 0
c9 -10 8 -15 -4 -20 -8 -3 -22 -3 -30 0 -12 5 -13 10 -4 20 6 8 15 14 19 14 4
0 13 -6 19 -14z m80 0 c9 -10 8 -15 -4 -20 -8 -3 -22 -3 -30 0 -12 5 -13 10
-4 20 6 8 15 14 19 14 4 0 13 -6 19 -14z m-910 -30 c9 -10 8 -16 -4 -26 -13
-11 -15 -8 -15 14 0 30 3 32 19 12z m51 -12 c0 -22 -2 -25 -15 -14 -12 10 -13
16 -4 26 16 20 19 18 19 -12z m171 15 c16 -8 18 -13 8 -25 -14 -18 -33 -18
-48 -1 -8 10 -7 17 1 25 15 15 15 15 39 1z m808 -25 c-14 -17 -35 -18 -45 -2
-11 17 26 40 43 27 10 -9 10 -15 2 -25z m131 10 c0 -22 -2 -25 -15 -14 -12 10
-13 16 -4 26 16 20 19 18 19 -12z m-1190 -5 c0 -18 -2 -19 -15 -9 -15 12 -12
30 6 30 5 0 9 -10 9 -21z m114 12 c3 -5 -1 -14 -9 -21 -13 -10 -15 -9 -15 9 0
21 14 28 24 12z m46 -12 c0 -18 -2 -19 -15 -9 -15 12 -12 30 6 30 5 0 9 -10 9
-21z m17 -1 c-3 -8 -6 -5 -6 6 -1 11 2 17 5 13 3 -3 4 -12 1 -19z m133 1 c0
-18 -2 -19 -15 -9 -15 12 -12 30 6 30 5 0 9 -10 9 -21z m37 4 c2 -6 -3 -13
-12 -16 -10 -5 -15 0 -15 14 0 21 21 22 27 2z m43 -4 c0 -18 -2 -19 -15 -9
-15 12 -12 30 6 30 5 0 9 -10 9 -21z m38 3 c2 -7 -3 -12 -12 -12 -9 0 -16 7
-16 16 0 17 22 14 28 -4z m42 -3 c0 -11 -4 -17 -10 -14 -5 3 -10 13 -10 21 0
8 5 14 10 14 6 0 10 -9 10 -21z m32 -11 c-9 -9 -12 -7 -12 12 0 19 3 21 12 12
9 -9 9 -15 0 -24z m48 10 c0 -16 -3 -19 -11 -11 -6 6 -8 16 -5 22 11 17 16 13
16 -11z m32 -10 c-9 -9 -12 -7 -12 12 0 19 3 21 12 12 9 -9 9 -15 0 -24z m48
10 c0 -16 -3 -19 -11 -11 -6 6 -8 16 -5 22 11 17 16 13 16 -11z m32 -10 c-9
-9 -12 -7 -12 12 0 19 3 21 12 12 9 -9 9 -15 0 -24z m48 10 c0 -16 -3 -19 -11
-11 -6 6 -8 16 -5 22 11 17 16 13 16 -11z m32 -10 c-9 -9 -12 -7 -12 12 0 19
3 21 12 12 9 -9 9 -15 0 -24z m48 10 c0 -16 -3 -19 -11 -11 -6 6 -8 16 -5 22
11 17 16 13 16 -11z m32 -10 c-9 -9 -12 -7 -12 12 0 19 3 21 12 12 9 -9 9 -15
0 -24z m48 10 c0 -16 -3 -19 -11 -11 -6 6 -8 16 -5 22 11 17 16 13 16 -11z
m32 -10 c-9 -9 -12 -7 -12 12 0 19 3 21 12 12 9 -9 9 -15 0 -24z m48 10 c0
-16 -3 -19 -11 -11 -6 6 -8 16 -5 22 11 17 16 13 16 -11z m32 -10 c-9 -9 -12
-7 -12 12 0 19 3 21 12 12 9 -9 9 -15 0 -24z m125 10 c-3 -8 -6 -5 -6 6 -1 11
2 17 5 13 3 -3 4 -12 1 -19z m37 13 c3 -5 -1 -14 -9 -21 -13 -10 -15 -9 -15 9
0 21 14 28 24 12z m80 0 c3 -5 -1 -14 -9 -21 -13 -10 -15 -9 -15 9 0 21 14 28
24 12z m46 -12 c0 -18 -2 -19 -15 -9 -15 12 -12 30 6 30 5 0 9 -10 9 -21z m22
-11 c-9 -9 -12 -7 -12 12 0 19 3 21 12 12 9 -9 9 -15 0 -24z m48 10 c0 -16 -3
-19 -11 -11 -6 6 -8 16 -5 22 11 17 16 13 16 -11z m-1065 -64 c14 -22 15 -28
4 -35 -8 -5 -18 -9 -23 -9 -13 0 -35 32 -36 53 0 26 35 21 55 -9z m65 7 c8
-16 6 -21 -10 -26 -26 -8 -40 1 -40 26 0 25 36 25 50 0z m57 3 c5 -14 -35 -26
-43 -13 -8 14 6 30 24 27 8 -2 17 -8 19 -14z m53 6 c0 -5 -9 -10 -21 -10 -11
0 -17 5 -14 10 3 6 13 10 21 10 8 0 14 -4 14 -10z m407 -7 c3 -7 -4 -9 -16 -6
-12 3 -18 9 -15 15 7 11 26 6 31 -9z m65 3 c11 -11 14 -11 24 2 13 17 44 10
44 -10 -1 -32 -14 -38 -57 -25 -48 14 -58 21 -48 36 9 15 22 14 37 -3z m134 0
c9 -23 -24 -65 -46 -59 -24 6 -25 21 -4 51 17 25 42 29 50 8z m-840 -31 c13
-20 14 -28 4 -40 -7 -8 -16 -15 -20 -15 -14 0 -42 51 -36 66 8 22 34 17 52
-11z m893 11 c10 -12 9 -20 -4 -40 -19 -29 -43 -34 -51 -11 -6 16 20 65 35 65
5 0 14 -6 20 -14z m-1183 -36 l24 0 -26 -40 c-15 -22 -28 -40 -30 -40 -6 0
-54 74 -54 84 0 4 14 6 31 2 17 -3 42 -6 55 -6z m1504 2 c0 -8 -49 -82 -54
-82 -2 0 -15 18 -29 39 l-27 40 38 4 c20 2 45 4 55 5 9 1 17 -1 17 -6z m-1351
-6 c-15 -13 -158 -73 -153 -63 36 62 44 67 101 67 31 0 54 -2 52 -4z m1239
-23 c10 -16 22 -33 26 -40 5 -10 -138 50 -153 63 -2 2 21 4 52 4 49 0 58 -3
75 -27z m-1474 -23 l26 -40 -55 0 c-30 0 -55 2 -55 6 0 4 53 74 56 74 1 0 13
-18 28 -40z m331 29 c4 -6 -1 -17 -11 -24 -16 -12 -21 -12 -33 0 -7 7 -10 18
-7 24 9 14 43 14 51 0z m970 -13 c0 -22 -14 -29 -34 -17 -19 12 -6 43 16 39
10 -2 18 -12 18 -22z m365 -48 c0 -5 -25 -8 -55 -8 l-55 0 26 40 27 41 28 -33
c16 -18 28 -36 29 -40z m-1437 30 c-17 -30 -24 -33 -74 -35 l-54 -3 65 35 c36
19 69 34 73 35 5 0 0 -15 -10 -32z m1187 -3 l65 -35 -54 3 c-50 2 -57 5 -74
35 -10 17 -15 32 -10 32 4 -1 37 -16 73 -35z m-1145 -15 c-3 -5 -11 -10 -16
-10 -6 0 -7 5 -4 10 3 6 11 10 16 10 6 0 7 -4 4 -10z m1065 -11 c0 -6 -4 -7
-10 -4 -5 3 -10 11 -10 16 0 6 5 7 10 4 6 -3 10 -11 10 -16z m-1350 -36 c-1
-8 -121 -66 -126 -60 -2 1 6 17 18 35 17 28 25 32 64 32 24 0 44 -3 44 -7z
m200 1 c0 -5 -28 -49 -47 -73 -3 -5 -39 36 -54 62 -9 15 -4 17 46 17 30 0 55
-3 55 -6z m1311 -11 c-15 -26 -51 -67 -54 -62 -19 24 -47 68 -47 73 0 3 25 6
55 6 50 0 55 -2 46 -17z m207 -15 c12 -18 20 -34 18 -35 -4 -4 -136 57 -136
63 0 2 22 4 49 4 44 0 51 -3 69 -32z m-1707 -20 c-19 -31 -25 -33 -78 -35
l-58 -2 70 34 c39 18 74 34 78 34 5 1 0 -14 -12 -31z m109 -40 c0 -4 -22 -8
-50 -8 -27 0 -50 3 -50 8 0 4 10 23 21 42 l22 35 28 -35 c16 -19 29 -38 29
-42z m1448 40 c11 -18 18 -36 16 -40 -6 -10 -94 -11 -94 -1 0 7 49 73 55 73 1
0 12 -14 23 -32z m93 -3 l74 -34 -58 2 c-53 2 -59 4 -78 35 -12 17 -19 32 -16
32 2 0 38 -16 78 -35z m-1701 -66 c0 -5 -11 -26 -24 -45 l-24 -36 -31 46 -32
46 56 0 c32 0 55 -4 55 -11z m130 2 c0 -7 -142 -73 -146 -68 -2 2 7 19 20 38
21 31 28 34 75 35 28 0 51 -2 51 -5z m1556 -31 c13 -19 22 -35 20 -37 -4 -5
-146 61 -146 68 0 4 23 6 52 5 46 -2 53 -5 74 -36z m104 32 c0 -4 -12 -25 -26
-46 -29 -42 -24 -43 -69 27 l-17 27 56 0 c31 0 56 -3 56 -8z m-1891 -46 c12
-18 21 -36 21 -40 0 -3 -22 -6 -50 -6 -27 0 -50 3 -50 7 0 7 49 73 55 73 2 0
13 -15 24 -34z m230 -10 c-20 -35 -23 -36 -77 -36 l-57 1 75 38 c41 22 76 38
78 36 2 -1 -7 -19 -19 -39z m1560 -32 c2 -2 -21 -4 -51 -4 -54 0 -57 2 -77 36
-12 19 -21 37 -21 40 0 4 140 -63 149 -72z m181 4 c0 -4 -22 -8 -50 -8 -27 0
-50 3 -50 6 0 4 10 23 22 42 l22 35 28 -33 c15 -19 28 -38 28 -42z m-1982 -33
c3 -3 -127 -65 -135 -65 -3 0 10 18 27 40 30 38 35 40 69 34 20 -4 37 -8 39
-9z m182 -29 c-12 -20 -25 -36 -30 -36 -5 0 -20 15 -34 33 l-26 32 53 5 c28 3
54 4 56 3 2 -1 -7 -18 -19 -37z m1617 1 c-13 -17 -28 -32 -34 -34 -9 -3 -53
54 -53 68 0 2 25 2 56 1 l55 -4 -24 -31z m223 3 c17 -22 30 -40 27 -40 -3 0
-36 15 -73 32 -67 32 -68 33 -39 39 50 11 52 10 85 -31z m-2012 -20 c-22 -39
-24 -40 -77 -40 -30 0 -51 3 -47 7 6 6 129 68 144 72 1 1 -8 -17 -20 -39z
m2017 -32 c5 -4 -15 -8 -46 -8 -54 0 -56 1 -78 40 l-22 39 68 -31 c37 -17 72
-35 78 -40z m-1929 30 l27 -33 -48 -3 c-26 -2 -49 -1 -52 2 -6 6 29 66 38 66
4 0 20 -15 35 -32z m1777 1 c10 -18 16 -34 13 -36 -2 -2 -25 -3 -51 -1 l-48 3
27 33 c15 17 31 32 34 32 4 0 15 -14 25 -31z m-1930 -77 c16 -7 15 -11 -9 -45
-23 -35 -27 -37 -42 -23 -10 8 -25 28 -35 45 l-18 31 43 -1 c24 0 51 -4 61 -7z
m2107 3 c0 -10 -52 -85 -59 -85 -6 0 -51 65 -51 74 0 3 8 7 18 9 25 7 92 8 92
2z m-1990 -26 c-140 -65 -138 -65 -98 -6 18 25 25 27 81 27 l62 0 -45 -21z
m1878 -15 c13 -20 22 -37 20 -39 -2 -1 -39 15 -83 36 l-80 37 60 1 c58 1 61 0
83 -35z m-2090 -10 c13 -20 21 -38 19 -41 -3 -2 -28 -3 -57 -1 l-52 3 29 37
c15 21 30 37 33 38 3 0 15 -16 28 -36z m2282 -36 c0 -5 -25 -8 -56 -8 -59 0
-59 -1 -21 54 l20 29 28 -34 c16 -19 29 -37 29 -41z m-2020 56 c0 -3 -9 -19
-21 -35 -19 -26 -25 -29 -77 -28 l-57 1 70 33 c73 35 85 39 85 29z m1761 -29
l73 -35 -61 0 c-59 0 -62 1 -82 35 -11 19 -16 35 -11 35 4 0 41 -16 81 -35z
m-2031 -60 c0 -7 -132 -66 -137 -61 -3 2 5 18 18 35 20 27 29 31 71 31 26 0
48 -2 48 -5z m204 -7 c-4 -7 -16 -26 -27 -42 l-21 -29 -28 34 c-15 18 -28 37
-28 41 0 4 25 8 56 8 41 0 53 -3 48 -12z m1916 5 c-1 -10 -60 -76 -64 -71 -1
1 -15 20 -30 41 l-28 37 61 0 c33 0 61 -3 61 -7z m214 -25 c14 -18 24 -34 22
-35 -4 -5 -128 48 -140 59 -6 4 13 8 41 8 46 0 54 -3 77 -32z m-2326 -22 c-22
-35 -25 -36 -83 -35 l-60 0 80 38 c44 21 81 37 83 35 2 -1 -7 -18 -20 -38z
m2331 -31 c2 -3 -21 -5 -51 -5 -53 0 -56 1 -82 40 l-26 39 77 -35 c42 -19 79
-37 82 -39z m-2211 -10 c-2 -2 -27 0 -56 3 l-52 7 21 35 21 34 35 -38 c19 -21
33 -39 31 -41z m2050 41 l20 -34 -52 -5 c-28 -3 -53 -3 -55 -2 -5 5 50 75 59
75 5 0 17 -15 28 -34z"/>
<path d="M2551 4323 c23 -31 49 -43 49 -23 0 6 -5 10 -12 10 -6 0 -23 10 -37
23 l-25 22 25 -32z"/>
<path d="M2505 4030 c-3 -6 1 -7 9 -4 18 7 21 14 7 14 -6 0 -13 -4 -16 -10z"/>
<path d="M2698 2683 c-29 -34 -30 -48 -2 -21 15 15 26 30 23 33 -3 3 -13 -3
-21 -12z"/>
<path d="M2022 1560 c0 -19 2 -27 5 -17 2 9 2 25 0 35 -3 9 -5 1 -5 -18z"/>
<path d="M2642 1560 c0 -19 2 -27 5 -17 2 9 2 25 0 35 -3 9 -5 1 -5 -18z"/>
<path d="M2982 1560 c0 -19 2 -27 5 -17 2 9 2 25 0 35 -3 9 -5 1 -5 -18z"/>
</g>
</svg>
